<?xml version="1.0" standalone="no"?><!DOCTYPE svg PUBLIC "-//W3C//DTD SVG 1.1//EN" "http://www.w3.org/Graphics/SVG/1.1/DTD/svg11.dtd"><svg t="1601176912532" class="icon" viewBox="0 0 1024 1024" version="1.1" xmlns="http://www.w3.org/2000/svg" p-id="4143" width="200" height="200" xmlns:xlink="http://www.w3.org/1999/xlink"><defs><style type="text/css"></style></defs><path d="M938.354 256.2V149.626c0-23.544-19.11-42.654-42.652-42.654H43.04C19.494 106.972 0.4 126.082 0.4 149.626V256.2h937.954z" fill="#E6E9ED" p-id="4144"></path><path d="M938.354 831.75H0.4V192.25h937.954v446.306z" fill="#656D78" p-id="4145"></path><path d="M85.662 149.626c0 11.772-9.542 21.296-21.312 21.296S43.04 161.398 43.04 149.626s9.54-21.328 21.31-21.328 21.312 9.558 21.312 21.328z" fill="#ED5564" p-id="4146"></path><path d="M149.612 149.626c0 11.772-9.54 21.296-21.31 21.296-11.774 0-21.312-9.524-21.312-21.296S116.528 128.3 128.3 128.3c11.772 0 21.312 9.556 21.312 21.326z" fill="#FFCE54" p-id="4147"></path><path d="M213.56 149.626c0 11.772-9.54 21.296-21.31 21.296S170.94 161.398 170.94 149.626s9.54-21.328 21.31-21.328 21.31 9.558 21.31 21.328z" fill="#A0D468" p-id="4148"></path><path d="M746.504 277.528H106.988c-11.772 0-21.326 9.524-21.326 21.294 0 11.772 9.554 21.328 21.326 21.328h639.516c11.74 0 21.294-9.556 21.294-21.328s-9.554-21.294-21.294-21.294z" fill="#FC6E51" p-id="4149"></path><path d="M106.988 405.426h341.062c11.772 0 21.31-9.554 21.31-21.328 0-11.772-9.54-21.326-21.31-21.326H106.988c-11.772 0-21.326 9.554-21.326 21.326 0 11.774 9.554 21.328 21.326 21.328z" fill="#AC92EB" p-id="4150"></path><path d="M575.952 448.05H106.988c-11.772 0-21.326 9.556-21.326 21.328s9.554 21.296 21.326 21.296h468.962c11.77 0 21.294-9.524 21.294-21.296s-9.524-21.328-21.292-21.328z" fill="#48CFAD" p-id="4151"></path><path d="M106.988 575.952h298.424c11.772 0 21.326-9.556 21.326-21.328s-9.554-21.296-21.326-21.296H106.988c-11.772 0-21.326 9.526-21.326 21.296s9.554 21.328 21.326 21.328z" fill="#5D9CEC" p-id="4152"></path><path d="M448.05 618.572H106.988c-11.772 0-21.326 9.554-21.326 21.328 0 11.772 9.554 21.326 21.326 21.326h341.062c11.772 0 21.31-9.554 21.31-21.326 0.002-11.774-9.538-21.328-21.31-21.328z" fill="#FFCE54" p-id="4153"></path><path d="M277.512 703.85H106.988c-11.772 0-21.326 9.554-21.326 21.328 0 11.772 9.554 21.294 21.326 21.294h170.524c11.772 0 21.326-9.524 21.326-21.294 0-11.774-9.554-21.328-21.326-21.328z" fill="#ED5564" p-id="4154"></path><path d="M1023.6 746.472v-127.9h-53.582a186.488 186.488 0 0 0-7.744-18.734l37.846-37.876-90.43-90.46-37.846 37.876a198.36 198.36 0 0 0-18.798-7.776v-53.552h-127.898v53.552a193.608 193.608 0 0 0-18.736 7.776l-37.876-37.876-90.46 90.46 37.91 37.876c-2.938 6.058-5.496 12.334-7.778 18.734h-53.55v127.9h53.55a186.628 186.628 0 0 0 7.778 18.768l-37.91 37.876 90.46 90.428 37.876-37.876a179.148 179.148 0 0 0 18.736 7.774v53.584h127.898v-53.584a182.908 182.908 0 0 0 18.798-7.774l37.846 37.876 90.46-90.428-37.876-37.876a186.884 186.884 0 0 0 7.744-18.768H1023.6z m-234.504 0c-35.286 0-63.95-28.632-63.95-63.95s28.664-63.952 63.95-63.952c35.348 0 63.95 28.634 63.95 63.952s-28.602 63.95-63.95 63.95z" fill="#FFCE54" p-id="4155"></path><path d="M789.096 575.952c-58.766 0-106.542 47.804-106.542 106.572 0 58.766 47.778 106.604 106.542 106.604 58.796 0 106.606-47.838 106.606-106.604 0-58.768-47.81-106.572-106.606-106.572z m0 170.52c-35.286 0-63.95-28.632-63.95-63.95s28.664-63.952 63.95-63.952c35.348 0 63.95 28.634 63.95 63.952s-28.602 63.95-63.95 63.95z" fill="#F6BB42" p-id="4156"></path></svg>